<svg xmlns="http://www.w3.org/2000/svg" width="1440" height="900"><path d="M1062,587L865,393L730,572Z" fill="#6cc2ca" stroke="#6cc2ca" stroke-width="1.51"/><path d="M730,572L606,899L1062,587Z" fill="#65becd" stroke="#65becd" stroke-width="1.51"/><path d="M1062,587L1103,147L865,393Z" fill="#71c3c9" stroke="#71c3c9" stroke-width="1.51"/><path d="M1062,587L1475,561L1103,147Z" fill="#62b5c5" stroke="#62b5c5" stroke-width="1.51"/><path d="M1394,924L1475,561L1062,587Z" fill="#45a4c9" stroke="#45a4c9" stroke-width="1.51"/><path d="M865,393L382,256L730,572Z" fill="#84cfc2" stroke="#84cfc2" stroke-width="1.51"/><path d="M730,572L245,598L606,899Z" fill="#7bc6c6" stroke="#7bc6c6" stroke-width="1.51"/><path d="M663,-148L382,256L865,393Z" fill="#99d7bb" stroke="#99d7bb" stroke-width="1.51"/><path d="M1171,1133L1394,924L1062,587Z" fill="#3c9dc8" stroke="#3c9dc8" stroke-width="1.51"/><path d="M1103,147L663,-148L865,393Z" fill="#8fcfc2" stroke="#8fcfc2" stroke-width="1.51"/><path d="M1303,-20L1114,-40L1103,147Z" fill="#89c3c5" stroke="#89c3c5" stroke-width="1.51"/><path d="M606,899L1171,1133L1062,587Z" fill="#4eabcb" stroke="#4eabcb" stroke-width="1.51"/><path d="M382,256L245,598L730,572Z" fill="#8ed2be" stroke="#8ed2be" stroke-width="1.51"/><path d="M606,899L1033,1220L1171,1133Z" fill="#469dc3" stroke="#469dc3" stroke-width="1.51"/><path d="M1581,382L1303,-20L1103,147Z" fill="#78b5bb" stroke="#78b5bb" stroke-width="1.51"/><path d="M1475,561L1581,382L1103,147Z" fill="#64acbe" stroke="#64acbe" stroke-width="1.51"/><path d="M1759,690L1581,382L1475,561Z" fill="#4c98bd" stroke="#4c98bd" stroke-width="1.51"/><path d="M962,-332L663,-148L1114,-40Z" fill="#a0d5cc" stroke="#a0d5cc" stroke-width="1.51"/><path d="M1114,-40L663,-148L1103,147Z" fill="#94d0c8" stroke="#94d0c8" stroke-width="1.51"/><path d="M245,598L141,699L606,899Z" fill="#87c9c6" stroke="#87c9c6" stroke-width="1.51"/><path d="M606,899L566,1521L1033,1220Z" fill="#539cbb" stroke="#539cbb" stroke-width="1.51"/><path d="M82,412L141,699L245,598Z" fill="#9bd4c6" stroke="#9bd4c6" stroke-width="1.51"/><path d="M141,699L297,1076L606,899Z" fill="#7ebcc0" stroke="#7ebcc0" stroke-width="1.51"/><path d="M382,256L82,412L245,598Z" fill="#9fd9c0" stroke="#9fd9c0" stroke-width="1.51"/><path d="M60,54L82,412L382,256Z" fill="#b0e0bd" stroke="#b0e0bd" stroke-width="1.51"/><path d="M663,-148L326,-58L382,256Z" fill="#afe0bb" stroke="#afe0bb" stroke-width="1.51"/><path d="M1681,943L1759,690L1475,561Z" fill="#358ec0" stroke="#358ec0" stroke-width="1.51"/><path d="M1681,943L1475,561L1394,924Z" fill="#3490c1" stroke="#3490c1" stroke-width="1.51"/><path d="M1431,1384L1394,924L1171,1133Z" fill="#2683ba" stroke="#2683ba" stroke-width="1.51"/><path d="M1431,1384L1681,943L1394,924Z" fill="#217db7" stroke="#217db7" stroke-width="1.51"/><path d="M1292,-410L962,-332L1114,-40Z" fill="#99ccd0" stroke="#99ccd0" stroke-width="1.51"/><path d="M663,-148L430,-376L326,-58Z" fill="#b9e4c2" stroke="#b9e4c2" stroke-width="1.51"/><path d="M-53,1461L371,1326L297,1076Z" fill="#7aa3b5" stroke="#7aa3b5" stroke-width="1.51"/><path d="M297,1076L371,1326L606,899Z" fill="#72abb8" stroke="#72abb8" stroke-width="1.51"/><path d="M1581,382L1764,161L1303,-20Z" fill="#72a8b5" stroke="#72a8b5" stroke-width="1.51"/><path d="M1303,-20L1292,-410L1114,-40Z" fill="#91c3c9" stroke="#91c3c9" stroke-width="1.51"/><path d="M1759,690L1764,161L1581,382Z" fill="#5798b6" stroke="#5798b6" stroke-width="1.51"/><path d="M101,-474L60,54L326,-58Z" fill="#caebc5" stroke="#caebc5" stroke-width="1.51"/><path d="M326,-58L60,54L382,256Z" fill="#b7e3bb" stroke="#b7e3bb" stroke-width="1.51"/><path d="M1033,1220L1431,1384L1171,1133Z" fill="#2b84bb" stroke="#2b84bb" stroke-width="1.51"/><path d="M937,1588L1431,1384L1033,1220Z" fill="#2e7db2" stroke="#2e7db2" stroke-width="1.51"/><path d="M141,699L-18,957L297,1076Z" fill="#8bbfc4" stroke="#8bbfc4" stroke-width="1.51"/><path d="M-402,787L-18,957L141,699Z" fill="#98cacf" stroke="#98cacf" stroke-width="1.51"/><path d="M-344,384L141,699L82,412Z" fill="#a7dbca" stroke="#a7dbca" stroke-width="1.51"/><path d="M371,1326L566,1521L606,899Z" fill="#669fb5" stroke="#669fb5" stroke-width="1.51"/><path d="M760,1735L566,1521L206,1799Z" fill="#60879e" stroke="#60879e" stroke-width="1.51"/><path d="M566,1521L937,1588L1033,1220Z" fill="#4686ad" stroke="#4686ad" stroke-width="1.51"/><path d="M662,-533L430,-376L663,-148Z" fill="#b8e3cc" stroke="#b8e3cc" stroke-width="1.51"/><path d="M962,-332L662,-533L663,-148Z" fill="#adddcf" stroke="#adddcf" stroke-width="1.51"/><path d="M1694,-495L1292,-410L1303,-20Z" fill="#90b9c9" stroke="#90b9c9" stroke-width="1.51"/><path d="M1292,-410L662,-533L962,-332Z" fill="#a6d6d8" stroke="#a6d6d8" stroke-width="1.51"/><path d="M566,1521L760,1735L937,1588Z" fill="#4b81a4" stroke="#4b81a4" stroke-width="1.51"/><path d="M1649,1711L1822,1374L1431,1384Z" fill="#0d5a9b" stroke="#0d5a9b" stroke-width="1.51"/><path d="M148,1695L566,1521L371,1326Z" fill="#6b8d9f" stroke="#6b8d9f" stroke-width="1.51"/><path d="M1759,690L2086,186L1764,161Z" fill="#5b8ea9" stroke="#5b8ea9" stroke-width="1.51"/><path d="M2287,1013L2337,777L1759,690Z" fill="#2b70a5" stroke="#2b70a5" stroke-width="1.51"/><path d="M1431,1384L1822,1374L1681,943Z" fill="#0f6cae" stroke="#0f6cae" stroke-width="1.51"/><path d="M1291,1858L1431,1384L937,1588Z" fill="#286da4" stroke="#286da4" stroke-width="1.51"/><path d="M1764,161L1881,-259L1303,-20Z" fill="#7fa7b9" stroke="#7fa7b9" stroke-width="1.51"/><path d="M2337,777L2086,186L1759,690Z" fill="#457ea5" stroke="#457ea5" stroke-width="1.51"/><path d="M60,54L-344,384L82,412Z" fill="#b7e3c5" stroke="#b7e3c5" stroke-width="1.51"/><path d="M-404,-252L-344,384L60,54Z" fill="#ccebcb" stroke="#ccebcb" stroke-width="1.51"/><path d="M2086,186L1881,-259L1764,161Z" fill="#7493a6" stroke="#7493a6" stroke-width="1.51"/><path d="M430,-376L101,-474L326,-58Z" fill="#c8eac8" stroke="#c8eac8" stroke-width="1.51"/><path d="M662,-533L101,-474L430,-376Z" fill="#c8eacb" stroke="#c8eacb" stroke-width="1.51"/><path d="M-18,957L-53,1461L297,1076Z" fill="#85aebd" stroke="#85aebd" stroke-width="1.51"/><path d="M-276,1322L-53,1461L-18,957Z" fill="#88abc2" stroke="#88abc2" stroke-width="1.51"/><path d="M-344,384L-402,787L141,699Z" fill="#a5d7d4" stroke="#a5d7d4" stroke-width="1.51"/><path d="M1292,-410L1694,-495L662,-533Z" fill="#9ec9d5" stroke="#9ec9d5" stroke-width="1.51"/><path d="M1881,-259L1694,-495L1303,-20Z" fill="#89acc2" stroke="#89acc2" stroke-width="1.51"/><path d="M760,1735L1291,1858L937,1588Z" fill="#3779a8" stroke="#3779a8" stroke-width="1.51"/><path d="M760,1735L206,1799L1291,1858Z" fill="#4b81a4" stroke="#4b81a4" stroke-width="1.51"/><path d="M-53,1461L148,1695L371,1326Z" fill="#7793a6" stroke="#7793a6" stroke-width="1.51"/><path d="M1291,1858L1649,1711L1431,1384Z" fill="#19609c" stroke="#19609c" stroke-width="1.51"/><path d="M-53,1461L-409,1826L148,1695Z" fill="#7f93aa" stroke="#7f93aa" stroke-width="1.51"/><path d="M-500,906L-276,1322L-18,957Z" fill="#92bacc" stroke="#92bacc" stroke-width="1.51"/><path d="M148,1695L206,1799L566,1521Z" fill="#6d8c9f" stroke="#6d8c9f" stroke-width="1.51"/><path d="M-409,1826L206,1799L148,1695Z" fill="#7c92a7" stroke="#7c92a7" stroke-width="1.51"/><path d="M-344,384L-500,906L-402,787Z" fill="#a8d7dc" stroke="#a8d7dc" stroke-width="1.51"/><path d="M-402,787L-500,906L-18,957Z" fill="#9bc7d4" stroke="#9bc7d4" stroke-width="1.51"/><path d="M2287,1013L1759,690L1681,943Z" fill="#2772a9" stroke="#2772a9" stroke-width="1.51"/><path d="M2287,1013L1681,943L1822,1374Z" fill="#1762a0" stroke="#1762a0" stroke-width="1.51"/><path d="M2145,1447L2287,1013L1822,1374Z" fill="#095396" stroke="#095396" stroke-width="1.51"/><path d="M1881,-259L2127,-431L1694,-495Z" fill="#869bb5" stroke="#869bb5" stroke-width="1.51"/><path d="M2086,186L2276,4L1881,-259Z" fill="#748ea2" stroke="#748ea2" stroke-width="1.51"/><path d="M2337,777L2276,4L2086,186Z" fill="#5a86a0" stroke="#5a86a0" stroke-width="1.51"/><path d="M-344,384L-512,-439L-500,906Z" fill="#c5e8d2" stroke="#c5e8d2" stroke-width="1.51"/><path d="M101,-474L-404,-252L60,54Z" fill="#d6efcf" stroke="#d6efcf" stroke-width="1.51"/><path d="M1649,1711L2145,1447L1822,1374Z" fill="#094a8b" stroke="#094a8b" stroke-width="1.51"/><path d="M2276,4L2127,-431L1881,-259Z" fill="#7e92a9" stroke="#7e92a9" stroke-width="1.51"/><path d="M-404,-252L-512,-439L-344,384Z" fill="#ddf2d6" stroke="#ddf2d6" stroke-width="1.51"/><path d="M101,-474L-512,-439L-404,-252Z" fill="#e3f4dc" stroke="#e3f4dc" stroke-width="1.51"/><path d="M662,-533L-512,-439L101,-474Z" fill="#dbf1d4" stroke="#dbf1d4" stroke-width="1.51"/><path d="M2145,1447L2322,1647L2287,1013Z" fill="#094c8e" stroke="#094c8e" stroke-width="1.51"/><path d="M2287,1013L2322,1647L2337,777Z" fill="#155b9a" stroke="#155b9a" stroke-width="1.51"/><path d="M1649,1711L2322,1647L2145,1447Z" fill="#084081" stroke="#084081" stroke-width="1.51"/><path d="M1291,1858L2322,1647L1649,1711Z" fill="#094f91" stroke="#094f91" stroke-width="1.51"/><path d="M-500,906L-409,1826L-276,1322Z" fill="#8ea6c3" stroke="#8ea6c3" stroke-width="1.51"/><path d="M-276,1322L-409,1826L-53,1461Z" fill="#8394af" stroke="#8394af" stroke-width="1.51"/><path d="M206,1799L-409,1826L1291,1858Z" fill="#6a8b9d" stroke="#6a8b9d" stroke-width="1.51"/></svg>